<?xml version="1.0" standalone="no"?>
<!DOCTYPE svg PUBLIC "-//W3C//DTD SVG 20010904//EN"
 "http://www.w3.org/TR/2001/REC-SVG-20010904/DTD/svg10.dtd">
<svg version="1.0" xmlns="http://www.w3.org/2000/svg"
 width="512.000000pt" height="512.000000pt" viewBox="0 0 512.000000 512.000000"
 preserveAspectRatio="xMidYMid meet">

<g transform="translate(0.000000,512.000000) scale(0.100000,-0.100000)"
fill="#000000" stroke="none">
<path d="M2520 4900 c-19 -3 -48 -14 -65 -22 -16 -9 -285 -272 -596 -585 -521
-523 -567 -572 -579 -615 -40 -152 106 -303 259 -266 42 10 76 40 421 384 207
206 379 374 383 374 4 0 7 -855 7 -1900 0 -1862 0 -1902 19 -1939 37 -71 115
-121 190 -121 75 0 161 56 192 124 18 39 19 114 19 1941 l0 1900 363 -362
c377 -377 408 -402 488 -403 84 0 159 47 195 124 29 62 30 117 3 176 -27 60
-1103 1141 -1164 1169 -50 24 -90 30 -135 21z"/>
</g>
</svg>
